<svg width="16" height="16" viewBox="0 0 16 16" fill="none" xmlns="http://www.w3.org/2000/svg">
<path d="M15.0007 8.15546C15.0007 7.57991 14.953 7.15991 14.8499 6.72437H8.14355V9.32211H12.08C12.0007 9.96769 11.5721 10.9399 10.6197 11.5932L10.6064 11.6802L12.7268 13.29L12.8737 13.3044C14.2229 12.0832 15.0007 10.2866 15.0007 8.15546" fill="#1367E6"/>
<path d="M8.14315 14.9999C10.0717 14.9999 11.6907 14.3776 12.8733 13.3043L10.6193 11.5931C10.0162 12.0054 9.20662 12.2932 8.14315 12.2932C6.25428 12.2932 4.65113 11.0721 4.07965 9.38428L3.99588 9.39125L1.79104 11.0635L1.76221 11.142C2.93679 13.4287 5.34949 14.9999 8.14315 14.9999Z" fill="#34A853"/>
<path d="M4.08006 9.38448C3.92927 8.94893 3.84201 8.48223 3.84201 8.00003C3.84201 7.51778 3.92927 7.05113 4.07213 6.61558L4.06814 6.52282L1.83566 4.82373L1.76262 4.85778C1.27851 5.80668 1.00073 6.87226 1.00073 8.00003C1.00073 9.1278 1.27851 10.1933 1.76262 11.1422L4.08006 9.38448" fill="#E24B4A"/>
<path d="M8.14319 3.70665C9.48444 3.70665 10.3892 4.27442 10.9051 4.7489L12.9209 2.82C11.6829 1.69222 10.0717 1 8.14319 1C5.34951 1 2.9368 2.5711 1.76221 4.85775L4.07173 6.61555C4.65114 4.92777 6.25431 3.70665 8.14319 3.70665" fill="#E24B4A"/>
</svg>
