<svg width="412" height="107" viewBox="0 0 412 107" fill="none" xmlns="http://www.w3.org/2000/svg">
<g filter="url(#filter0_dd_2075_9668)">
<rect x="423" y="3" width="15" height="434" rx="7.5" transform="rotate(90 423 3)" fill="#B8ECF5"/>
</g>
<path d="M404.5 71.5V23.5C404.5 22.6716 403.828 22 403 22C402.172 22 401.5 22.6716 401.5 23.5V71.5C401.5 72.3284 402.172 73 403 73C403.828 73 404.5 72.3284 404.5 71.5Z" fill="#757575"/>
<path d="M387.5 44.5V23.5C387.5 22.6716 386.828 22 386 22C385.172 22 384.5 22.6716 384.5 23.5V44.5C384.5 45.3284 385.172 46 386 46C386.828 46 387.5 45.3284 387.5 44.5Z" fill="#B9B9B9"/>
<path d="M370.5 44.5V23.5C370.5 22.6716 369.828 22 369 22C368.172 22 367.5 22.6716 367.5 23.5V44.5C367.5 45.3284 368.172 46 369 46C369.828 46 370.5 45.3284 370.5 44.5Z" fill="#B9B9B9"/>
<path d="M353.5 44.5V23.5C353.5 22.6716 352.828 22 352 22C351.172 22 350.5 22.6716 350.5 23.5V44.5C350.5 45.3284 351.172 46 352 46C352.828 46 353.5 45.3284 353.5 44.5Z" fill="#B9B9B9"/>
<path d="M336.5 71.5V23.5C336.5 22.6716 335.828 22 335 22C334.172 22 333.5 22.6716 333.5 23.5V71.5C333.5 72.3284 334.172 73 335 73C335.828 73 336.5 72.3284 336.5 71.5Z" fill="#757575"/>
<path d="M319.5 44.5V23.5C319.5 22.6716 318.828 22 318 22C317.172 22 316.5 22.6716 316.5 23.5V44.5C316.5 45.3284 317.172 46 318 46C318.828 46 319.5 45.3284 319.5 44.5Z" fill="#B9B9B9"/>
<path d="M302.5 44.5V23.5C302.5 22.6716 301.828 22 301 22C300.172 22 299.5 22.6716 299.5 23.5V44.5C299.5 45.3284 300.172 46 301 46C301.828 46 302.5 45.3284 302.5 44.5Z" fill="#B9B9B9"/>
<path d="M285.5 44.5V23.5C285.5 22.6716 284.828 22 284 22C283.172 22 282.5 22.6716 282.5 23.5V44.5C282.5 45.3284 283.172 46 284 46C284.828 46 285.5 45.3284 285.5 44.5Z" fill="#B9B9B9"/>
<path d="M268.5 71.5V23.5C268.5 22.6716 267.828 22 267 22C266.172 22 265.5 22.6716 265.5 23.5V71.5C265.5 72.3284 266.172 73 267 73C267.828 73 268.5 72.3284 268.5 71.5Z" fill="#757575"/>
<path d="M251.5 44.5V23.5C251.5 22.6716 250.828 22 250 22C249.172 22 248.5 22.6716 248.5 23.5V44.5C248.5 45.3284 249.172 46 250 46C250.828 46 251.5 45.3284 251.5 44.5Z" fill="#B9B9B9"/>
<path d="M234.5 44.5V23.5C234.5 22.6716 233.828 22 233 22C232.172 22 231.5 22.6716 231.5 23.5V44.5C231.5 45.3284 232.172 46 233 46C233.828 46 234.5 45.3284 234.5 44.5Z" fill="#B9B9B9"/>
<path d="M217.5 44.5V23.5C217.5 22.6716 216.828 22 216 22C215.172 22 214.5 22.6716 214.5 23.5V44.5C214.5 45.3284 215.172 46 216 46C216.828 46 217.5 45.3284 217.5 44.5Z" fill="#B9B9B9"/>
<g filter="url(#filter1_dd_2075_9668)">
<path d="M200.5 99V25C200.5 23.3431 199.157 22 197.5 22C195.843 22 194.5 23.3431 194.5 25V99C194.5 100.657 195.843 102 197.5 102C199.157 102 200.5 100.657 200.5 99Z" fill="#1367E6"/>
</g>
<path d="M180.5 44.5V23.5C180.5 22.6716 179.828 22 179 22C178.172 22 177.5 22.6716 177.5 23.5V44.5C177.5 45.3284 178.172 46 179 46C179.828 46 180.5 45.3284 180.5 44.5Z" fill="#B9B9B9"/>
<path d="M163.5 44.5V23.5C163.5 22.6716 162.828 22 162 22C161.172 22 160.5 22.6716 160.5 23.5V44.5C160.5 45.3284 161.172 46 162 46C162.828 46 163.5 45.3284 163.5 44.5Z" fill="#B9B9B9"/>
<path d="M146.5 44.5V23.5C146.5 22.6716 145.828 22 145 22C144.172 22 143.5 22.6716 143.5 23.5V44.5C143.5 45.3284 144.172 46 145 46C145.828 46 146.5 45.3284 146.5 44.5Z" fill="#B9B9B9"/>
<path d="M129.5 71.5V23.5C129.5 22.6716 128.828 22 128 22C127.172 22 126.5 22.6716 126.5 23.5V71.5C126.5 72.3284 127.172 73 128 73C128.828 73 129.5 72.3284 129.5 71.5Z" fill="#757575"/>
<path d="M112.5 44.5V23.5C112.5 22.6716 111.828 22 111 22C110.172 22 109.5 22.6716 109.5 23.5V44.5C109.5 45.3284 110.172 46 111 46C111.828 46 112.5 45.3284 112.5 44.5Z" fill="#B9B9B9"/>
<path d="M95.5 44.5V23.5C95.5 22.6716 94.8284 22 94 22C93.1716 22 92.5 22.6716 92.5 23.5V44.5C92.5 45.3284 93.1716 46 94 46C94.8284 46 95.5 45.3284 95.5 44.5Z" fill="#B9B9B9"/>
<path d="M78.5 44.5V23.5C78.5 22.6716 77.8284 22 77 22C76.1716 22 75.5 22.6716 75.5 23.5V44.5C75.5 45.3284 76.1716 46 77 46C77.8284 46 78.5 45.3284 78.5 44.5Z" fill="#B9B9B9"/>
<path d="M61.5 71.5V23.5C61.5 22.6716 60.8284 22 60 22C59.1716 22 58.5 22.6716 58.5 23.5V71.5C58.5 72.3284 59.1716 73 60 73C60.8284 73 61.5 72.3284 61.5 71.5Z" fill="#757575"/>
<path d="M44.5 44.5V23.5C44.5 22.6716 43.8284 22 43 22C42.1716 22 41.5 22.6716 41.5 23.5V44.5C41.5 45.3284 42.1716 46 43 46C43.8284 46 44.5 45.3284 44.5 44.5Z" fill="#B9B9B9"/>
<path d="M27.5 44.5V23.5C27.5 22.6716 26.8284 22 26 22C25.1716 22 24.5 22.6716 24.5 23.5V44.5C24.5 45.3284 25.1716 46 26 46C26.8284 46 27.5 45.3284 27.5 44.5Z" fill="#B9B9B9"/>
<path d="M10.5 44.5V23.5C10.5 22.6716 9.82843 22 9 22C8.17157 22 7.5 22.6716 7.5 23.5V44.5C7.5 45.3284 8.17157 46 9 46C9.82843 46 10.5 45.3284 10.5 44.5Z" fill="#B9B9B9"/>
<defs>
<filter id="filter0_dd_2075_9668" x="-15" y="0" width="442" height="23" filterUnits="userSpaceOnUse" color-interpolation-filters="sRGB">
<feFlood flood-opacity="0" result="BackgroundImageFix"/>
<feColorMatrix in="SourceAlpha" type="matrix" values="0 0 0 0 0 0 0 0 0 0 0 0 0 0 0 0 0 0 127 0" result="hardAlpha"/>
<feOffset dy="1"/>
<feGaussianBlur stdDeviation="2"/>
<feComposite in2="hardAlpha" operator="out"/>
<feColorMatrix type="matrix" values="0 0 0 0 0.0470588 0 0 0 0 0.0470588 0 0 0 0 0.0509804 0 0 0 0.05 0"/>
<feBlend mode="normal" in2="BackgroundImageFix" result="effect1_dropShadow_2075_9668"/>
<feColorMatrix in="SourceAlpha" type="matrix" values="0 0 0 0 0 0 0 0 0 0 0 0 0 0 0 0 0 0 127 0" result="hardAlpha"/>
<feOffset dy="1"/>
<feGaussianBlur stdDeviation="2"/>
<feComposite in2="hardAlpha" operator="out"/>
<feColorMatrix type="matrix" values="0 0 0 0 0.0470588 0 0 0 0 0.0470588 0 0 0 0 0.0509804 0 0 0 0.1 0"/>
<feBlend mode="normal" in2="effect1_dropShadow_2075_9668" result="effect2_dropShadow_2075_9668"/>
<feBlend mode="normal" in="SourceGraphic" in2="effect2_dropShadow_2075_9668" result="shape"/>
</filter>
<filter id="filter1_dd_2075_9668" x="190.5" y="19" width="14" height="88" filterUnits="userSpaceOnUse" color-interpolation-filters="sRGB">
<feFlood flood-opacity="0" result="BackgroundImageFix"/>
<feColorMatrix in="SourceAlpha" type="matrix" values="0 0 0 0 0 0 0 0 0 0 0 0 0 0 0 0 0 0 127 0" result="hardAlpha"/>
<feOffset dy="1"/>
<feGaussianBlur stdDeviation="2"/>
<feComposite in2="hardAlpha" operator="out"/>
<feColorMatrix type="matrix" values="0 0 0 0 0.0470588 0 0 0 0 0.0470588 0 0 0 0 0.0509804 0 0 0 0.05 0"/>
<feBlend mode="normal" in2="BackgroundImageFix" result="effect1_dropShadow_2075_9668"/>
<feColorMatrix in="SourceAlpha" type="matrix" values="0 0 0 0 0 0 0 0 0 0 0 0 0 0 0 0 0 0 127 0" result="hardAlpha"/>
<feOffset dy="1"/>
<feGaussianBlur stdDeviation="2"/>
<feComposite in2="hardAlpha" operator="out"/>
<feColorMatrix type="matrix" values="0 0 0 0 0.0470588 0 0 0 0 0.0470588 0 0 0 0 0.0509804 0 0 0 0.1 0"/>
<feBlend mode="normal" in2="effect1_dropShadow_2075_9668" result="effect2_dropShadow_2075_9668"/>
<feBlend mode="normal" in="SourceGraphic" in2="effect2_dropShadow_2075_9668" result="shape"/>
</filter>
</defs>
</svg>
