<svg preserveAspectRatio="none" overflow="visible" style="display: block;" width="20" height="20" viewBox="0 0 20 20" fill="none" xmlns="http://www.w3.org/2000/svg">
<g id="Pulse">
<path id="Vector" d="M18.75 10C18.75 10.1658 18.6842 10.3247 18.5669 10.4419C18.4497 10.5592 18.2908 10.625 18.125 10.625H16.0109L13.0594 16.5297C13.0074 16.6335 12.9276 16.7208 12.8288 16.7818C12.73 16.8428 12.6161 16.8751 12.5 16.875H12.4688C12.3475 16.869 12.2307 16.8278 12.1324 16.7565C12.0342 16.6852 11.9589 16.5869 11.9156 16.4734L7.44922 4.74687L4.94375 10.2586C4.89411 10.3678 4.81409 10.4604 4.71324 10.5254C4.61239 10.5904 4.49497 10.625 4.375 10.625H1.875C1.70924 10.625 1.55027 10.5592 1.43306 10.4419C1.31585 10.3247 1.25 10.1658 1.25 10C1.25 9.83424 1.31585 9.67527 1.43306 9.55806C1.55027 9.44085 1.70924 9.375 1.875 9.375H3.97266L6.93125 2.86641C6.98226 2.75409 7.06536 2.65938 7.17009 2.5942C7.27482 2.52903 7.39649 2.4963 7.51979 2.50014C7.64308 2.50398 7.76248 2.54422 7.86295 2.6158C7.96342 2.68737 8.04046 2.78707 8.08438 2.90234L12.5773 14.6992L15.0656 9.72188C15.1174 9.61775 15.1971 9.53012 15.296 9.46884C15.3948 9.40756 15.5087 9.37506 15.625 9.375H18.125C18.2908 9.375 18.4497 9.44085 18.5669 9.55806C18.6842 9.67527 18.75 9.83424 18.75 10Z" fill="#0F7586"/>
</g>
</svg>
